<?xml version="1.0" encoding="UTF-8" standalone="no"?>
<svg
   xmlns:dc="http://purl.org/dc/elements/1.1/"
   xmlns:cc="http://creativecommons.org/ns#"
   xmlns:rdf="http://www.w3.org/1999/02/22-rdf-syntax-ns#"
   xmlns:svg="http://www.w3.org/2000/svg"
   xmlns="http://www.w3.org/2000/svg"
   version="1.1"
   id="Layer_1"
   x="0px"
   y="0px"
   width="330"
   height="60"
   viewBox="0 0 330.00001 60"
   enable-background="new 0 0 478.322 106.993"
   xml:space="preserve"><metadata
     id="metadata4259"><rdf:RDF><cc:Work
         rdf:about=""><dc:format>image/svg+xml</dc:format><dc:type
           rdf:resource="http://purl.org/dc/dcmitype/StillImage" /><dc:title></dc:title></cc:Work></rdf:RDF></metadata><defs
     id="defs4257" /><polygon
     transform="matrix(0.79682989,0,0,0.73537196,-39.323317,-9.046244)"
     points="414.665,37.829 460.329,37.829 460.329,16.238 404.232,16.238 "
     id="polygon4247-3"
     style="fill:#e6007e;stroke-width:1.07632184" /><polygon
     transform="matrix(0.79682989,0,0,0.73537196,-39.323317,-9.046244)"
     points="460.329,69.147 429.795,69.147 440.233,90.754 460.329,90.754 "
     id="polygon4249-6"
     style="fill:#ffed00;stroke-width:1.07632184" /><polygon
     transform="matrix(0.79682989,0,0,0.73537196,-39.323317,-9.046244)"
     points="427.446,64.285 460.329,64.285 460.329,42.693 417.014,42.693 "
     id="polygon4251-7"
     style="fill:#009fe3;stroke-width:1.07632184" /><path
     id="path885"
     style="font-style:normal;font-variant:normal;font-weight:normal;font-stretch:normal;font-size:82.76083374px;line-height:1.25;font-family:Etna;-inkscape-font-specification:Etna;letter-spacing:0px;word-spacing:0px;fill:#ffffff;fill-opacity:1;stroke:none;stroke-width:1"
     d="M 23.755159,3.958716 H 3.4787546 3.3132329 V 57.75326 H 3.9753196 23.755159 c 14.81419,0 26.897271,-12.08308 26.897271,-26.89727 0,-14.896954 -12.083081,-26.897274 -26.897271,-26.897274 z M 34.017503,41.11834 c -2.731108,2.7311 -6.372585,4.2208 -10.262344,4.2208 H 16.223923 V 16.290086 h 7.448475 c 3.88976,0 7.613997,1.48969 10.345105,4.2208 2.731107,2.81387 4.220802,6.45534 4.220802,10.345104 0,3.88976 -1.489695,7.53124 -4.220802,10.26235 z" /><path
     id="path887"
     style="font-style:normal;font-variant:normal;font-weight:normal;font-stretch:normal;font-size:82.76083374px;line-height:1.25;font-family:Etna;-inkscape-font-specification:Etna;letter-spacing:0px;word-spacing:0px;fill:#ffffff;fill-opacity:1;stroke:none;stroke-width:1"
     d="m 86.31459,57.42222 h 14.89695 L 72.328009,3.627676 43.361718,57.42222 h 14.89695 l 3.889759,-7.53124 h 20.276404 z m -18.952231,-17.62806 4.96565,-9.43473 4.88289,9.43473 z" /><path
     id="path889"
     style="font-style:normal;font-variant:normal;font-weight:normal;font-stretch:normal;font-size:82.76083374px;line-height:1.25;font-family:Etna;-inkscape-font-specification:Etna;letter-spacing:0px;word-spacing:0px;fill:#ffffff;fill-opacity:1;stroke:none;stroke-width:1"
     d="M 133.74689,16.538366 V 3.627676 H 92.863038 v 12.91069 H 106.84962 V 57.42222 h 12.91069 V 16.538366 Z" /><path
     id="path891"
     style="font-style:normal;font-variant:normal;font-weight:normal;font-stretch:normal;font-size:82.76083374px;line-height:1.25;font-family:Etna;-inkscape-font-specification:Etna;letter-spacing:0px;word-spacing:0px;fill:#ffffff;fill-opacity:1;stroke:none;stroke-width:1"
     d="m 165.68093,57.42222 h 14.89695 L 151.69435,3.627676 122.72806,57.42222 h 14.89695 l 3.88976,-7.53124 h 20.2764 z m -18.95223,-17.62806 4.96565,-9.43473 4.88289,9.43473 z" /><path
     id="path893"
     style="font-style:normal;font-variant:normal;font-weight:normal;font-stretch:normal;font-size:82.76083374px;line-height:1.25;font-family:Etna;-inkscape-font-specification:Etna;letter-spacing:0px;word-spacing:0px;fill:#ffffff;fill-opacity:1;stroke:none;stroke-width:1"
     d="M 182.62622,3.627676 V 57.42222 h 12.91069 V 3.627676 Z" /><path
     id="path895"
     style="font-style:normal;font-variant:normal;font-weight:normal;font-stretch:normal;font-size:82.76083374px;line-height:1.25;font-family:Etna;-inkscape-font-specification:Etna;letter-spacing:0px;word-spacing:0px;fill:#ffffff;fill-opacity:1;stroke:none;stroke-width:1"
     d="m 244.16278,22.000576 c 0,-8.27608 -5.95878,-18.3729 -19.20051,-18.3729 -7.69676,0 -11.25548,0 -12.82793,0 H 199.22365 V 57.42222 h 12.91069 V 40.29073 c 1.82074,0 3.88976,0 6.1243,0 l 11.25547,17.13149 h 14.48315 L 232.41074,39.04931 c 8.52437,-2.97939 11.75204,-11.00719 11.75204,-17.048734 z m -32.02844,-6.78639 h 12.82793 c 2.7311,0 4.6346,0.66209 5.87602,2.15179 1.32417,1.40693 1.73797,3.31043 1.73797,4.6346 0,1.24142 -0.4138,3.14491 -1.57245,4.55185 -0.49657,0.57932 -1.15865,0.99313 -1.9035,1.40693 -1.07589,0.496574 -2.56559,0.744854 -4.2208,0.744854 h -12.74517 z" /><path
     id="path897"
     style="font-style:normal;font-variant:normal;font-weight:normal;font-stretch:normal;font-size:82.76083374px;line-height:1.25;font-family:Etna;-inkscape-font-specification:Etna;letter-spacing:0px;word-spacing:0px;fill:#ffffff;fill-opacity:1;stroke:none;stroke-width:1"
     d="M 290.46875,57.42222 H 305.3657 L 276.48217,3.627676 247.51588,57.42222 h 14.89695 l 3.88976,-7.53124 h 20.2764 z m -18.95223,-17.62806 4.96565,-9.43473 4.88289,9.43473 z" /></svg>